<mxfile host="app.diagrams.net" modified="2020-11-01T03:34:54.406Z" agent="5.0 (Macintosh; Intel Mac OS X 10_14_2) AppleWebKit/605.1.15 (KHTML, like Gecko) Version/12.0.2 Safari/605.1.15" etag="NCzQwo48VSWcVg5AB4mv" version="13.8.7" type="github">
  <diagram id="07fea595-8f29-1299-0266-81d95cde20df" name="Page-1">
    <mxGraphModel dx="3524" dy="819" grid="1" gridSize="10" guides="1" tooltips="1" connect="1" arrows="1" fold="1" page="1" pageScale="1" pageWidth="1169" pageHeight="827" background="#ffffff" math="0" shadow="0">
      <root>
        <mxCell id="0" />
        <mxCell id="1" parent="0" />
        <mxCell id="698" value="" style="rounded=0;whiteSpace=wrap;html=1;shadow=0;labelBackgroundColor=none;strokeColor=none;strokeWidth=3;fillColor=#e8edf0;fontSize=60;fontColor=#2F5B7C;align=left;" parent="1" vertex="1">
          <mxGeometry x="-2290" y="32" width="2250" height="1598" as="geometry" />
        </mxCell>
        <mxCell id="699" value="&lt;div style=&quot;font-size: 26px&quot;&gt;&lt;font style=&quot;font-size: 26px&quot;&gt;Customer Relationships&lt;/font&gt;&lt;/div&gt;&lt;div&gt;&lt;br&gt;&lt;/div&gt;&lt;div&gt;What type of relationship does each of our Customer&lt;/div&gt;&lt;div&gt;Segments expect us to establish and maintain with them?&lt;/div&gt;&lt;div&gt;Which ones have we established?&lt;/div&gt;&lt;div&gt;How are they integrated with the rest of our business model?&lt;/div&gt;&lt;div&gt;How costly are they?&lt;/div&gt;&lt;div&gt;&lt;br&gt;&lt;/div&gt;&lt;div style=&quot;font-size: 10px&quot;&gt;&lt;font style=&quot;font-size: 10px&quot;&gt;&lt;b&gt;Examples&lt;/b&gt;&lt;/font&gt;&lt;/div&gt;&lt;div style=&quot;font-size: 10px&quot;&gt;&lt;font style=&quot;font-size: 10px&quot;&gt;Personal assistance&lt;/font&gt;&lt;/div&gt;&lt;div style=&quot;font-size: 10px&quot;&gt;&lt;font style=&quot;font-size: 10px&quot;&gt;Dedicated Personal Assistance&lt;/font&gt;&lt;/div&gt;&lt;div style=&quot;font-size: 10px&quot;&gt;&lt;font style=&quot;font-size: 10px&quot;&gt;Self-Service&lt;/font&gt;&lt;/div&gt;&lt;div style=&quot;font-size: 10px&quot;&gt;&lt;font style=&quot;font-size: 10px&quot;&gt;Automated Services&lt;/font&gt;&lt;/div&gt;&lt;div style=&quot;font-size: 10px&quot;&gt;&lt;font style=&quot;font-size: 10px&quot;&gt;Communities&lt;/font&gt;&lt;/div&gt;&lt;div style=&quot;font-size: 10px&quot;&gt;&lt;font style=&quot;font-size: 10px&quot;&gt;Co-creation&lt;/font&gt;&lt;/div&gt;" style="rounded=0;whiteSpace=wrap;html=1;shadow=0;labelBackgroundColor=none;strokeColor=#e8edf0;strokeWidth=5;fillColor=#ffffff;fontSize=12;fontColor=#2F5B7C;align=left;verticalAlign=top;spacing=30;" parent="1" vertex="1">
          <mxGeometry x="-950" y="220" width="420" height="450" as="geometry" />
        </mxCell>
        <mxCell id="700" value="&lt;font&gt;&lt;span style=&quot;font-size: 26px&quot;&gt;分析重点&lt;/span&gt;&lt;br&gt;&lt;/font&gt;&lt;font style=&quot;font-size: 12px&quot;&gt;&lt;br style=&quot;font-size: 12px&quot;&gt;&lt;font style=&quot;font-size: 12px&quot;&gt;理解GC日志&lt;br style=&quot;font-size: 12px&quot;&gt;理解jvm线程堆栈&lt;br style=&quot;font-size: 12px&quot;&gt;内存分析&lt;br&gt;&lt;br style=&quot;font-size: 12px&quot;&gt;&lt;/font&gt;&lt;br style=&quot;font-size: 12px&quot;&gt;&lt;/font&gt;&lt;div style=&quot;font-size: 10px&quot;&gt;&lt;b&gt;实战经验&lt;/b&gt;&lt;/div&gt;&lt;div style=&quot;font-size: 10px&quot;&gt;jvm问题分析与调优经验&lt;/div&gt;&lt;div style=&quot;font-size: 10px&quot;&gt;GC疑难情况&lt;/div&gt;&lt;div style=&quot;font-size: 10px&quot;&gt;JVM常见生产问题&lt;/div&gt;&lt;div style=&quot;font-size: 12px&quot;&gt;&lt;br style=&quot;font-size: 12px&quot;&gt;&lt;/div&gt;" style="rounded=0;whiteSpace=wrap;html=1;shadow=0;labelBackgroundColor=none;strokeColor=#e8edf0;strokeWidth=5;fillColor=#ffffff;fontSize=12;fontColor=#2F5B7C;align=left;verticalAlign=top;spacing=30;" parent="1" vertex="1">
          <mxGeometry x="-2210" y="220" width="250" height="900" as="geometry" />
        </mxCell>
        <mxCell id="701" value="&lt;font&gt;&lt;span style=&quot;font-size: 26px&quot;&gt;GC日志&lt;/span&gt;&lt;br style=&quot;font-size: 12px&quot;&gt;&lt;font size=&quot;1&quot;&gt;&lt;b&gt;拿到日志&lt;/b&gt;&lt;/font&gt;&lt;br&gt;&lt;/font&gt;&lt;div style=&quot;font-size: 10px&quot;&gt;&lt;div&gt;java -Xloggc:gc.demo.log -XX:[+PrintGCDetails | +PrintGCDateStamps]&amp;lt;Application&amp;gt;&lt;/div&gt;&lt;div&gt;1) 我们模拟OOM java -Xmx128m -XX:+PrintGCDetails GCLogAnalysis&lt;/div&gt;&lt;div&gt;2) 分别观察栈的大小为512M, 1024M, 2048M, 4086M时候 日志的不同&lt;/div&gt;&lt;div&gt;分别使用不同的GC策略去观察&lt;/div&gt;&lt;div&gt;&lt;font style=&quot;font-size: 12px&quot;&gt;&lt;b style=&quot;font-size: 10px&quot;&gt;Categories&lt;/b&gt;&lt;br&gt;&lt;/font&gt;&lt;div&gt;&lt;div&gt;Production&lt;/div&gt;&lt;div&gt;Problem Solving&lt;/div&gt;&lt;div&gt;Platform/Network&lt;/div&gt;&lt;/div&gt;&lt;/div&gt;&lt;div&gt;&lt;br&gt;&lt;/div&gt;&lt;div&gt;&lt;font style=&quot;font-size: 12px&quot;&gt;&lt;b style=&quot;font-size: 10px&quot;&gt;Categories&lt;/b&gt;&lt;br&gt;&lt;/font&gt;&lt;div&gt;&lt;div&gt;Production&lt;/div&gt;&lt;div&gt;Problem Solving&lt;/div&gt;&lt;div&gt;Platform/Network&lt;/div&gt;&lt;/div&gt;&lt;/div&gt;&lt;div&gt;&lt;br&gt;&lt;/div&gt;&lt;div&gt;&lt;font style=&quot;font-size: 12px&quot;&gt;&lt;b style=&quot;font-size: 10px&quot;&gt;Categories&lt;/b&gt;&lt;br&gt;&lt;/font&gt;&lt;div&gt;&lt;div&gt;Production&lt;/div&gt;&lt;div&gt;Problem Solving&lt;/div&gt;&lt;div&gt;Platform/Network&lt;/div&gt;&lt;/div&gt;&lt;/div&gt;&lt;div&gt;&lt;br&gt;&lt;/div&gt;&lt;div&gt;&lt;font style=&quot;font-size: 12px&quot;&gt;&lt;b style=&quot;font-size: 10px&quot;&gt;Categories&lt;/b&gt;&lt;br&gt;&lt;/font&gt;&lt;div&gt;&lt;div&gt;Production&lt;/div&gt;&lt;div&gt;Problem Solving&lt;/div&gt;&lt;div&gt;Platform/Network&lt;/div&gt;&lt;/div&gt;&lt;/div&gt;&lt;div&gt;&lt;br&gt;&lt;/div&gt;&lt;div&gt;&lt;font style=&quot;font-size: 12px&quot;&gt;&lt;b style=&quot;font-size: 10px&quot;&gt;Categories&lt;/b&gt;&lt;br&gt;&lt;/font&gt;&lt;div&gt;&lt;div&gt;Production&lt;/div&gt;&lt;div&gt;Problem Solving&lt;/div&gt;&lt;div&gt;Platform/Network&lt;/div&gt;&lt;/div&gt;&lt;/div&gt;&lt;/div&gt;&lt;div&gt;&lt;br&gt;&lt;/div&gt;" style="rounded=0;whiteSpace=wrap;html=1;shadow=0;labelBackgroundColor=none;strokeColor=#e8edf0;strokeWidth=5;fillColor=#ffffff;fontSize=12;fontColor=#2F5B7C;align=left;verticalAlign=top;spacing=30;" parent="1" vertex="1">
          <mxGeometry x="-1960" y="220" width="590" height="450" as="geometry" />
        </mxCell>
        <mxCell id="702" value="&lt;div&gt;&lt;font style=&quot;font-size: 26px&quot;&gt;Key Resources&lt;/font&gt;&lt;/div&gt;&lt;div&gt;&lt;br&gt;&lt;/div&gt;&lt;div&gt;What Key Resources do our Value Propositions require?&lt;/div&gt;&lt;div&gt;Our Distribution Channels? Customer Relationships?&lt;/div&gt;&lt;div&gt;Revenue Streams?&lt;/div&gt;&lt;div&gt;&lt;br&gt;&lt;/div&gt;&lt;div style=&quot;font-size: 10px&quot;&gt;&lt;font style=&quot;font-size: 10px&quot;&gt;&lt;b&gt;Types of resources&lt;/b&gt;&lt;/font&gt;&lt;/div&gt;&lt;div style=&quot;font-size: 10px&quot;&gt;&lt;font style=&quot;font-size: 10px&quot;&gt;Physical&lt;/font&gt;&lt;/div&gt;&lt;div style=&quot;font-size: 10px&quot;&gt;&lt;font style=&quot;font-size: 10px&quot;&gt;Intellectual (brand patents, copyrights, data)&lt;/font&gt;&lt;/div&gt;&lt;div style=&quot;font-size: 10px&quot;&gt;&lt;font style=&quot;font-size: 10px&quot;&gt;Human&lt;/font&gt;&lt;/div&gt;&lt;div style=&quot;font-size: 10px&quot;&gt;&lt;font style=&quot;font-size: 10px&quot;&gt;Financial&lt;/font&gt;&lt;/div&gt;" style="rounded=0;whiteSpace=wrap;html=1;shadow=0;labelBackgroundColor=none;strokeColor=#e8edf0;strokeWidth=5;fillColor=#ffffff;fontSize=12;fontColor=#2F5B7C;align=left;verticalAlign=top;spacing=30;" parent="1" vertex="1">
          <mxGeometry x="-1960" y="670" width="590" height="450" as="geometry" />
        </mxCell>
        <mxCell id="703" value="&lt;div style=&quot;font-size: 26px&quot;&gt;JVM线程堆栈数据分析&lt;/div&gt;&lt;div&gt;&lt;br&gt;&lt;/div&gt;&lt;div&gt;What value do we deliver to the customer?&lt;/div&gt;&lt;div&gt;Which one of our customer’s problems are we helping to solve?&lt;/div&gt;&lt;div&gt;What bundles of products and services are we offering to each Customer Segment?&lt;/div&gt;&lt;div&gt;Which customer needs are we satisfying?&lt;/div&gt;&lt;div&gt;&lt;br&gt;&lt;/div&gt;&lt;div style=&quot;font-size: 10px&quot;&gt;&lt;font style=&quot;font-size: 10px&quot;&gt;&lt;b&gt;Characteristics&lt;/b&gt;&lt;/font&gt;&lt;/div&gt;&lt;div style=&quot;font-size: 10px&quot;&gt;&lt;font style=&quot;font-size: 10px&quot;&gt;Newness&lt;/font&gt;&lt;/div&gt;&lt;div style=&quot;font-size: 10px&quot;&gt;&lt;font style=&quot;font-size: 10px&quot;&gt;Performance&lt;/font&gt;&lt;/div&gt;&lt;div style=&quot;font-size: 10px&quot;&gt;&lt;font style=&quot;font-size: 10px&quot;&gt;Customization&lt;/font&gt;&lt;/div&gt;&lt;div style=&quot;font-size: 10px&quot;&gt;&lt;font style=&quot;font-size: 10px&quot;&gt;“Getting the Job Done”&lt;/font&gt;&lt;/div&gt;&lt;div style=&quot;font-size: 10px&quot;&gt;&lt;font style=&quot;font-size: 10px&quot;&gt;Design&lt;/font&gt;&lt;/div&gt;&lt;div style=&quot;font-size: 10px&quot;&gt;&lt;font style=&quot;font-size: 10px&quot;&gt;Brand/Status&lt;/font&gt;&lt;/div&gt;&lt;div style=&quot;font-size: 10px&quot;&gt;&lt;font style=&quot;font-size: 10px&quot;&gt;Price&lt;/font&gt;&lt;/div&gt;&lt;div style=&quot;font-size: 10px&quot;&gt;&lt;font style=&quot;font-size: 10px&quot;&gt;Cost Reduction&lt;/font&gt;&lt;/div&gt;&lt;div style=&quot;font-size: 10px&quot;&gt;&lt;font style=&quot;font-size: 10px&quot;&gt;Risk Reduction&lt;/font&gt;&lt;/div&gt;&lt;div style=&quot;font-size: 10px&quot;&gt;&lt;font style=&quot;font-size: 10px&quot;&gt;Accessibility&lt;/font&gt;&lt;/div&gt;&lt;div style=&quot;font-size: 10px&quot;&gt;&lt;font style=&quot;font-size: 10px&quot;&gt;Convenience/Usability&lt;/font&gt;&lt;/div&gt;&lt;div style=&quot;font-size: 10px&quot;&gt;&lt;br&gt;&lt;/div&gt;" style="rounded=0;whiteSpace=wrap;html=1;shadow=0;labelBackgroundColor=none;strokeColor=#e8edf0;strokeWidth=5;fillColor=#ffffff;fontSize=12;fontColor=#2F5B7C;align=left;verticalAlign=top;spacing=30;" parent="1" vertex="1">
          <mxGeometry x="-1500" y="220" width="550" height="900" as="geometry" />
        </mxCell>
        <mxCell id="704" value="&lt;div&gt;&lt;font style=&quot;font-size: 26px&quot;&gt;Customer Segments&lt;/font&gt;&lt;/div&gt;&lt;div&gt;&lt;br&gt;&lt;/div&gt;&lt;div&gt;For whom are we creating value?&lt;/div&gt;&lt;div&gt;Who are our most important customers?&lt;/div&gt;&lt;div&gt;&lt;br&gt;&lt;/div&gt;&lt;div style=&quot;font-size: 10px&quot;&gt;&lt;font style=&quot;font-size: 10px&quot;&gt;Mass Market&lt;/font&gt;&lt;/div&gt;&lt;div style=&quot;font-size: 10px&quot;&gt;&lt;font style=&quot;font-size: 10px&quot;&gt;Niche Market&lt;/font&gt;&lt;/div&gt;&lt;div style=&quot;font-size: 10px&quot;&gt;&lt;font style=&quot;font-size: 10px&quot;&gt;Segmented&lt;/font&gt;&lt;/div&gt;&lt;div style=&quot;font-size: 10px&quot;&gt;&lt;font style=&quot;font-size: 10px&quot;&gt;Diversified&lt;/font&gt;&lt;/div&gt;&lt;div style=&quot;font-size: 10px&quot;&gt;&lt;font style=&quot;font-size: 10px&quot;&gt;Multi-sided Platform&lt;/font&gt;&lt;/div&gt;" style="rounded=0;whiteSpace=wrap;html=1;shadow=0;labelBackgroundColor=none;strokeColor=#e8edf0;strokeWidth=5;fillColor=#ffffff;fontSize=12;fontColor=#2F5B7C;align=left;verticalAlign=top;spacing=30;" parent="1" vertex="1">
          <mxGeometry x="-530" y="220" width="420" height="900" as="geometry" />
        </mxCell>
        <mxCell id="705" value="&lt;div&gt;&lt;font style=&quot;font-size: 26px&quot;&gt;Channels&lt;/font&gt;&lt;/div&gt;&lt;div&gt;&lt;br&gt;&lt;/div&gt;&lt;div&gt;Through which Channels do our Customer Segments&lt;/div&gt;&lt;div&gt;want to be reached?&lt;/div&gt;&lt;div&gt;How are we reaching them now?&lt;/div&gt;&lt;div&gt;How are our Channels integrated?&lt;/div&gt;&lt;div&gt;Which ones work best?&lt;/div&gt;&lt;div&gt;Which ones are most cost-efficient?&lt;/div&gt;&lt;div&gt;How are we integrating them with customer routines?&lt;/div&gt;&lt;div&gt;&lt;br&gt;&lt;/div&gt;&lt;div style=&quot;font-size: 10px&quot;&gt;&lt;font style=&quot;font-size: 10px&quot;&gt;&lt;b&gt;Channel phases&lt;/b&gt;&lt;/font&gt;&lt;/div&gt;&lt;div style=&quot;font-size: 10px&quot;&gt;&lt;font style=&quot;font-size: 10px&quot;&gt;1. Awareness&lt;/font&gt;&lt;/div&gt;&lt;div style=&quot;font-size: 10px&quot;&gt;&lt;font style=&quot;font-size: 10px&quot;&gt;&amp;nbsp; &amp;nbsp; How do we raise awareness about our company’s products and services?&lt;/font&gt;&lt;/div&gt;&lt;div style=&quot;font-size: 10px&quot;&gt;&lt;font style=&quot;font-size: 10px&quot;&gt;2. Evaluation&lt;/font&gt;&lt;/div&gt;&lt;div style=&quot;font-size: 10px&quot;&gt;&lt;font style=&quot;font-size: 10px&quot;&gt;&amp;nbsp; &amp;nbsp; How do we help customers evaluate our organization’s Value Proposition?&lt;/font&gt;&lt;/div&gt;&lt;div style=&quot;font-size: 10px&quot;&gt;&lt;font style=&quot;font-size: 10px&quot;&gt;3. Purchase&lt;/font&gt;&lt;/div&gt;&lt;div style=&quot;font-size: 10px&quot;&gt;&lt;font style=&quot;font-size: 10px&quot;&gt;&amp;nbsp; &amp;nbsp; How do we allow customers to purchase specific products and services?&lt;/font&gt;&lt;/div&gt;&lt;div style=&quot;font-size: 10px&quot;&gt;&lt;font style=&quot;font-size: 10px&quot;&gt;4. Delivery&lt;/font&gt;&lt;/div&gt;&lt;div style=&quot;font-size: 10px&quot;&gt;&lt;font style=&quot;font-size: 10px&quot;&gt;&amp;nbsp; &amp;nbsp; How do we deliver a Value Proposition to customers?&lt;/font&gt;&lt;/div&gt;&lt;div style=&quot;font-size: 10px&quot;&gt;&lt;font style=&quot;font-size: 10px&quot;&gt;5. After sales&lt;/font&gt;&lt;/div&gt;&lt;div style=&quot;font-size: 10px&quot;&gt;&lt;font style=&quot;font-size: 10px&quot;&gt;&amp;nbsp; &amp;nbsp; How do we provide post-purchase customer support?&lt;/font&gt;&lt;/div&gt;&lt;div style=&quot;font-size: 10px&quot;&gt;&lt;br&gt;&lt;/div&gt;" style="rounded=0;whiteSpace=wrap;html=1;shadow=0;labelBackgroundColor=none;strokeColor=#e8edf0;strokeWidth=5;fillColor=#ffffff;fontSize=12;fontColor=#2F5B7C;align=left;verticalAlign=top;spacing=30;" parent="1" vertex="1">
          <mxGeometry x="-950" y="670" width="420" height="450" as="geometry" />
        </mxCell>
        <mxCell id="706" value="&lt;div style=&quot;font-size: 26px&quot;&gt;&lt;font style=&quot;font-size: 26px&quot;&gt;Cost Structure&lt;/font&gt;&lt;/div&gt;&lt;div&gt;&lt;br&gt;&lt;/div&gt;&lt;div&gt;What are the most important costs inherent in our business model?&lt;/div&gt;&lt;div&gt;Which Key Resources are most expensive?&lt;/div&gt;&lt;div&gt;Which Key Activities are most expensive?&lt;/div&gt;&lt;div&gt;&lt;br&gt;&lt;/div&gt;&lt;div style=&quot;font-size: 10px&quot;&gt;&lt;font style=&quot;font-size: 10px&quot;&gt;&lt;b&gt;Is your business more&lt;/b&gt;&lt;/font&gt;&lt;/div&gt;&lt;div style=&quot;font-size: 10px&quot;&gt;&lt;font style=&quot;font-size: 10px&quot;&gt;Cost Driven (leanest cost structure, low price value proposition, maximum automation, extensive outsourcing)&lt;/font&gt;&lt;/div&gt;&lt;div style=&quot;font-size: 10px&quot;&gt;&lt;font style=&quot;font-size: 10px&quot;&gt;Value Driven ( focused on value creation, premium value proposition)&lt;/font&gt;&lt;/div&gt;&lt;div style=&quot;font-size: 10px&quot;&gt;&lt;font style=&quot;font-size: 10px&quot;&gt;&lt;br&gt;&lt;/font&gt;&lt;/div&gt;&lt;div style=&quot;font-size: 10px&quot;&gt;&lt;font style=&quot;font-size: 10px&quot;&gt;&lt;b&gt;Sample characteristics&lt;/b&gt;&lt;/font&gt;&lt;/div&gt;&lt;div style=&quot;font-size: 10px&quot;&gt;&lt;font style=&quot;font-size: 10px&quot;&gt;Fixed Costs (salaries, rents, utilities)&lt;/font&gt;&lt;/div&gt;&lt;div style=&quot;font-size: 10px&quot;&gt;&lt;font style=&quot;font-size: 10px&quot;&gt;Variable costs&lt;/font&gt;&lt;/div&gt;&lt;div style=&quot;font-size: 10px&quot;&gt;&lt;font style=&quot;font-size: 10px&quot;&gt;Economies of scale&lt;/font&gt;&lt;/div&gt;&lt;div style=&quot;font-size: 10px&quot;&gt;&lt;font style=&quot;font-size: 10px&quot;&gt;Economies of scope&lt;/font&gt;&lt;/div&gt;" style="rounded=0;whiteSpace=wrap;html=1;shadow=0;labelBackgroundColor=none;strokeColor=#e8edf0;strokeWidth=5;fillColor=#ffffff;fontSize=12;fontColor=#2F5B7C;align=left;verticalAlign=top;spacing=30;" parent="1" vertex="1">
          <mxGeometry x="-2210" y="1120" width="1050" height="330" as="geometry" />
        </mxCell>
        <mxCell id="707" value="&lt;div style=&quot;font-size: 26px&quot;&gt;&lt;font style=&quot;font-size: 26px&quot;&gt;Revenue Streams&lt;/font&gt;&lt;/div&gt;&lt;div&gt;&lt;br&gt;&lt;/div&gt;&lt;div&gt;For what value are our customers really willing to pay?&lt;/div&gt;&lt;div&gt;For what do they currently pay?&lt;/div&gt;&lt;div&gt;How are they currently paying?&lt;/div&gt;&lt;div&gt;How would they prefer to pay?&lt;/div&gt;&lt;div&gt;How much does each Revenue Stream contribute to overall revenues?&lt;/div&gt;" style="rounded=0;whiteSpace=wrap;html=1;shadow=0;labelBackgroundColor=none;strokeColor=#e8edf0;strokeWidth=5;fillColor=#ffffff;fontSize=12;fontColor=#2F5B7C;align=left;verticalAlign=top;spacing=30;" parent="1" vertex="1">
          <mxGeometry x="-1160" y="1120" width="1050" height="330" as="geometry" />
        </mxCell>
        <mxCell id="708" value="JVM调优分析" style="text;html=1;resizable=0;points=[];autosize=1;align=left;verticalAlign=top;spacingTop=-4;fontSize=60;fontColor=#2F5B7C;" parent="1" vertex="1">
          <mxGeometry x="-2210" y="110" width="380" height="70" as="geometry" />
        </mxCell>
        <mxCell id="709" value="" style="html=1;verticalLabelPosition=bottom;labelBackgroundColor=#ffffff;verticalAlign=top;shadow=0;dashed=0;strokeWidth=4;shape=mxgraph.ios7.misc.check;strokeColor=#2F5B7C;fillColor=#ffffff;gradientColor=none;fontSize=12;fontColor=#2F5B7C;align=left;" parent="1" vertex="1">
          <mxGeometry x="-1570" y="247" width="20" height="16" as="geometry" />
        </mxCell>
        <mxCell id="710" value="" style="shape=mxgraph.signs.travel.present;html=1;fillColor=#2F5B7C;strokeColor=none;verticalLabelPosition=bottom;verticalAlign=top;align=center;shadow=0;labelBackgroundColor=none;fontSize=12;fontColor=#2F5B7C;" parent="1" vertex="1">
          <mxGeometry x="-1000" y="235" width="31" height="40" as="geometry" />
        </mxCell>
        <mxCell id="711" value="" style="html=1;verticalLabelPosition=bottom;labelBackgroundColor=#ffffff;verticalAlign=top;strokeWidth=3;strokeColor=none;fillColor=#2F5B7C;shadow=0;dashed=0;shape=mxgraph.ios7.icons.heart;fontSize=12;fontColor=#2F5B7C;align=left;" parent="1" vertex="1">
          <mxGeometry x="-594.9999999999997" y="242" width="41" height="36" as="geometry" />
        </mxCell>
        <mxCell id="712" value="&lt;div style=&quot;font-size: 10px&quot;&gt;&lt;b&gt;Dynamic pricing&lt;/b&gt;&lt;/div&gt;&lt;div style=&quot;font-size: 10px&quot;&gt;Negotiation( bargaining)&lt;/div&gt;&lt;div style=&quot;font-size: 10px&quot;&gt;Yield Management&lt;/div&gt;&lt;div style=&quot;font-size: 10px&quot;&gt;Real-time-Market&lt;/div&gt;" style="text;html=1;resizable=0;points=[];autosize=1;align=left;verticalAlign=top;spacingTop=-4;fontSize=10;fontColor=#2F5B7C;" parent="1" vertex="1">
          <mxGeometry x="-805.5" y="1286" width="120" height="50" as="geometry" />
        </mxCell>
        <mxCell id="713" value="&lt;div style=&quot;font-size: 10px&quot;&gt;&lt;b&gt;Fixed pricing&lt;/b&gt;&lt;/div&gt;&lt;div style=&quot;font-size: 10px&quot;&gt;List Price&lt;/div&gt;&lt;div style=&quot;font-size: 10px&quot;&gt;Product feature dependent&lt;/div&gt;&lt;div style=&quot;font-size: 10px&quot;&gt;Customer segment dependent&lt;/div&gt;&lt;div style=&quot;font-size: 10px&quot;&gt;Volume dependent&lt;/div&gt;" style="text;html=1;resizable=0;points=[];autosize=1;align=left;verticalAlign=top;spacingTop=-4;fontSize=10;fontColor=#2F5B7C;" parent="1" vertex="1">
          <mxGeometry x="-984.5" y="1286" width="150" height="60" as="geometry" />
        </mxCell>
        <mxCell id="714" value="&lt;div style=&quot;font-size: 10px&quot;&gt;&lt;b&gt;Types&lt;/b&gt;&lt;/div&gt;&lt;div style=&quot;font-size: 10px&quot;&gt;Asset sale&lt;/div&gt;&lt;div style=&quot;font-size: 10px&quot;&gt;Usage fee&lt;/div&gt;&lt;div style=&quot;font-size: 10px&quot;&gt;Subscription Fees&lt;/div&gt;&lt;div style=&quot;font-size: 10px&quot;&gt;Lending/Renting/Leasing&lt;/div&gt;&lt;div style=&quot;font-size: 10px&quot;&gt;Licensing&lt;/div&gt;&lt;div style=&quot;font-size: 10px&quot;&gt;Brokerage fees&lt;/div&gt;&lt;div style=&quot;font-size: 10px&quot;&gt;Advertising&lt;/div&gt;" style="text;html=1;resizable=0;points=[];autosize=1;align=left;verticalAlign=top;spacingTop=-4;fontSize=10;fontColor=#2F5B7C;" parent="1" vertex="1">
          <mxGeometry x="-1130" y="1286" width="130" height="100" as="geometry" />
        </mxCell>
        <mxCell id="715" value="" style="shadow=0;dashed=0;html=1;strokeColor=none;labelPosition=center;verticalLabelPosition=bottom;verticalAlign=top;shape=mxgraph.mscae.cloud.data_factory;fillColor=#2F5B7C;labelBackgroundColor=none;fontSize=10;fontColor=#2F5B7C;align=left;" parent="1" vertex="1">
          <mxGeometry x="-1585" y="680" width="50" height="50" as="geometry" />
        </mxCell>
        <mxCell id="716" value="" style="shape=mxgraph.signs.transportation.truck_6;html=1;fillColor=#2F5B7C;strokeColor=none;verticalLabelPosition=bottom;verticalAlign=top;align=center;shadow=0;labelBackgroundColor=none;fontSize=10;fontColor=#2F5B7C;aspect=fixed;" parent="1" vertex="1">
          <mxGeometry x="-590" y="690" width="40" height="50" as="geometry" />
        </mxCell>
        <mxCell id="717" value="" style="shape=image;html=1;verticalAlign=top;verticalLabelPosition=bottom;labelBackgroundColor=#ffffff;imageAspect=0;aspect=fixed;image=https://cdn4.iconfinder.com/data/icons/evil-icons-user-interface/64/price-128.png;shadow=0;strokeColor=#e8edf0;strokeWidth=3;fillColor=#2F5B7C;gradientColor=none;fontSize=10;fontColor=#2F5B7C;align=left;" parent="1" vertex="1">
          <mxGeometry x="-1226" y="1140" width="58" height="58" as="geometry" />
        </mxCell>
        <mxCell id="718" value="" style="dashed=0;html=1;shape=mxgraph.aws3.checklist_cost;fillColor=#2F5B7C;gradientColor=none;shadow=0;labelBackgroundColor=none;strokeColor=none;strokeWidth=3;fontSize=10;fontColor=#2F5B7C;align=left;" parent="1" vertex="1">
          <mxGeometry x="-203.5" y="1131.5" width="67.5" height="75" as="geometry" />
        </mxCell>
        <mxCell id="719" value="" style="shadow=0;dashed=0;html=1;strokeColor=none;fillColor=#2F5B7C;labelPosition=center;verticalLabelPosition=bottom;verticalAlign=top;outlineConnect=0;shape=mxgraph.office.concepts.link;labelBackgroundColor=none;fontSize=10;fontColor=#000000;align=left;" parent="1" vertex="1">
          <mxGeometry x="-2060" y="252" width="61" height="21" as="geometry" />
        </mxCell>
        <mxCell id="720" value="" style="group" parent="1" vertex="1" connectable="0">
          <mxGeometry x="-203.5" y="245" width="69" height="50" as="geometry" />
        </mxCell>
        <mxCell id="721" value="" style="shadow=0;dashed=0;html=1;strokeColor=#FFFFFF;labelPosition=center;verticalLabelPosition=bottom;verticalAlign=top;outlineConnect=0;shape=mxgraph.office.users.user;fillColor=#2F5B7C;labelBackgroundColor=none;fontSize=10;fontColor=#000000;align=left;strokeWidth=2;" parent="720" vertex="1">
          <mxGeometry x="31" y="-5" width="46" height="50" as="geometry" />
        </mxCell>
        <mxCell id="722" value="" style="shadow=0;dashed=0;html=1;strokeColor=#FFFFFF;labelPosition=center;verticalLabelPosition=bottom;verticalAlign=top;outlineConnect=0;shape=mxgraph.office.users.user;fillColor=#2F5B7C;labelBackgroundColor=none;fontSize=10;fontColor=#000000;align=left;strokeWidth=2;" parent="720" vertex="1">
          <mxGeometry width="46" height="50" as="geometry" />
        </mxCell>
        <mxCell id="q5aro9Pgh_S-iuNv3PJv-738" style="edgeStyle=orthogonalEdgeStyle;rounded=0;orthogonalLoop=1;jettySize=auto;html=1;exitX=0.5;exitY=1;exitDx=0;exitDy=0;entryX=0;entryY=0.5;entryDx=0;entryDy=0;" edge="1" parent="1" source="q5aro9Pgh_S-iuNv3PJv-722" target="q5aro9Pgh_S-iuNv3PJv-724">
          <mxGeometry relative="1" as="geometry">
            <Array as="points">
              <mxPoint x="-1440" y="610" />
              <mxPoint x="-1490" y="610" />
              <mxPoint x="-1490" y="645" />
            </Array>
          </mxGeometry>
        </mxCell>
        <mxCell id="q5aro9Pgh_S-iuNv3PJv-722" value="Thread#start()" style="rounded=0;whiteSpace=wrap;html=1;fillColor=#d5e8d4;strokeColor=#82b366;" vertex="1" parent="1">
          <mxGeometry x="-1480" y="560" width="80" height="30" as="geometry" />
        </mxCell>
        <mxCell id="q5aro9Pgh_S-iuNv3PJv-745" style="edgeStyle=orthogonalEdgeStyle;rounded=0;orthogonalLoop=1;jettySize=auto;html=1;exitX=1;exitY=0.5;exitDx=0;exitDy=0;entryX=0.5;entryY=0;entryDx=0;entryDy=0;" edge="1" parent="1" source="q5aro9Pgh_S-iuNv3PJv-723" target="q5aro9Pgh_S-iuNv3PJv-730">
          <mxGeometry relative="1" as="geometry" />
        </mxCell>
        <mxCell id="q5aro9Pgh_S-iuNv3PJv-723" value="Thread#run()" style="rounded=0;whiteSpace=wrap;html=1;fillColor=#d5e8d4;strokeColor=#82b366;" vertex="1" parent="1">
          <mxGeometry x="-1150" y="560" width="80" height="30" as="geometry" />
        </mxCell>
        <mxCell id="q5aro9Pgh_S-iuNv3PJv-739" style="edgeStyle=orthogonalEdgeStyle;rounded=0;orthogonalLoop=1;jettySize=auto;html=1;exitX=0.5;exitY=1;exitDx=0;exitDy=0;entryX=0.5;entryY=0;entryDx=0;entryDy=0;" edge="1" parent="1" source="q5aro9Pgh_S-iuNv3PJv-724" target="q5aro9Pgh_S-iuNv3PJv-731">
          <mxGeometry relative="1" as="geometry" />
        </mxCell>
        <mxCell id="q5aro9Pgh_S-iuNv3PJv-724" value="JavaThread" style="rounded=0;whiteSpace=wrap;html=1;fillColor=#dae8fc;strokeColor=#6c8ebf;" vertex="1" parent="1">
          <mxGeometry x="-1480" y="630" width="80" height="30" as="geometry" />
        </mxCell>
        <mxCell id="q5aro9Pgh_S-iuNv3PJv-741" style="edgeStyle=orthogonalEdgeStyle;rounded=0;orthogonalLoop=1;jettySize=auto;html=1;exitX=1;exitY=0.5;exitDx=0;exitDy=0;entryX=0;entryY=0.5;entryDx=0;entryDy=0;" edge="1" parent="1" source="q5aro9Pgh_S-iuNv3PJv-725" target="q5aro9Pgh_S-iuNv3PJv-726">
          <mxGeometry relative="1" as="geometry" />
        </mxCell>
        <mxCell id="q5aro9Pgh_S-iuNv3PJv-725" value="OsThread" style="rounded=0;whiteSpace=wrap;html=1;fillColor=#dae8fc;strokeColor=#6c8ebf;" vertex="1" parent="1">
          <mxGeometry x="-1390" y="630" width="70" height="30" as="geometry" />
        </mxCell>
        <mxCell id="q5aro9Pgh_S-iuNv3PJv-742" style="edgeStyle=orthogonalEdgeStyle;rounded=0;orthogonalLoop=1;jettySize=auto;html=1;exitX=1;exitY=0.5;exitDx=0;exitDy=0;entryX=0;entryY=0.5;entryDx=0;entryDy=0;" edge="1" parent="1" source="q5aro9Pgh_S-iuNv3PJv-726" target="q5aro9Pgh_S-iuNv3PJv-727">
          <mxGeometry relative="1" as="geometry" />
        </mxCell>
        <mxCell id="q5aro9Pgh_S-iuNv3PJv-726" value="Stack" style="rounded=0;whiteSpace=wrap;html=1;fillColor=#dae8fc;strokeColor=#6c8ebf;" vertex="1" parent="1">
          <mxGeometry x="-1304" y="630" width="80" height="30" as="geometry" />
        </mxCell>
        <mxCell id="q5aro9Pgh_S-iuNv3PJv-743" style="edgeStyle=orthogonalEdgeStyle;rounded=0;orthogonalLoop=1;jettySize=auto;html=1;exitX=1;exitY=0.5;exitDx=0;exitDy=0;entryX=0;entryY=0.5;entryDx=0;entryDy=0;" edge="1" parent="1" source="q5aro9Pgh_S-iuNv3PJv-727" target="q5aro9Pgh_S-iuNv3PJv-728">
          <mxGeometry relative="1" as="geometry" />
        </mxCell>
        <mxCell id="q5aro9Pgh_S-iuNv3PJv-727" value="TLAB" style="rounded=0;whiteSpace=wrap;html=1;fillColor=#dae8fc;strokeColor=#6c8ebf;" vertex="1" parent="1">
          <mxGeometry x="-1210" y="630" width="80" height="30" as="geometry" />
        </mxCell>
        <mxCell id="q5aro9Pgh_S-iuNv3PJv-744" style="edgeStyle=orthogonalEdgeStyle;rounded=0;orthogonalLoop=1;jettySize=auto;html=1;exitX=0.5;exitY=0;exitDx=0;exitDy=0;entryX=0;entryY=0.5;entryDx=0;entryDy=0;" edge="1" parent="1" source="q5aro9Pgh_S-iuNv3PJv-728" target="q5aro9Pgh_S-iuNv3PJv-723">
          <mxGeometry relative="1" as="geometry" />
        </mxCell>
        <mxCell id="q5aro9Pgh_S-iuNv3PJv-728" value="启动" style="rounded=0;whiteSpace=wrap;html=1;fillColor=#e1d5e7;strokeColor=#9673a6;" vertex="1" parent="1">
          <mxGeometry x="-1120" y="630" width="40" height="30" as="geometry" />
        </mxCell>
        <mxCell id="q5aro9Pgh_S-iuNv3PJv-746" style="edgeStyle=orthogonalEdgeStyle;rounded=0;orthogonalLoop=1;jettySize=auto;html=1;exitX=0.5;exitY=1;exitDx=0;exitDy=0;entryX=0.5;entryY=0;entryDx=0;entryDy=0;" edge="1" parent="1" source="q5aro9Pgh_S-iuNv3PJv-730" target="q5aro9Pgh_S-iuNv3PJv-733">
          <mxGeometry relative="1" as="geometry" />
        </mxCell>
        <mxCell id="q5aro9Pgh_S-iuNv3PJv-730" value="终结" style="rounded=0;whiteSpace=wrap;html=1;fillColor=#e1d5e7;strokeColor=#9673a6;" vertex="1" parent="1">
          <mxGeometry x="-1070" y="630" width="40" height="30" as="geometry" />
        </mxCell>
        <mxCell id="q5aro9Pgh_S-iuNv3PJv-740" style="edgeStyle=orthogonalEdgeStyle;rounded=0;orthogonalLoop=1;jettySize=auto;html=1;exitX=1;exitY=0.5;exitDx=0;exitDy=0;entryX=0.5;entryY=1;entryDx=0;entryDy=0;" edge="1" parent="1" source="q5aro9Pgh_S-iuNv3PJv-731" target="q5aro9Pgh_S-iuNv3PJv-725">
          <mxGeometry relative="1" as="geometry" />
        </mxCell>
        <mxCell id="q5aro9Pgh_S-iuNv3PJv-731" value="系统线程" style="rounded=0;whiteSpace=wrap;html=1;fillColor=#ffe6cc;strokeColor=#d79b00;" vertex="1" parent="1">
          <mxGeometry x="-1480" y="700" width="80" height="30" as="geometry" />
        </mxCell>
        <mxCell id="q5aro9Pgh_S-iuNv3PJv-732" value="ready" style="rounded=0;whiteSpace=wrap;html=1;fillColor=#ffe6cc;strokeColor=#d79b00;" vertex="1" parent="1">
          <mxGeometry x="-1226" y="700" width="80" height="30" as="geometry" />
        </mxCell>
        <mxCell id="q5aro9Pgh_S-iuNv3PJv-733" value="Terminate" style="rounded=0;whiteSpace=wrap;html=1;fillColor=#ffe6cc;strokeColor=#d79b00;" vertex="1" parent="1">
          <mxGeometry x="-1130" y="700" width="80" height="30" as="geometry" />
        </mxCell>
        <mxCell id="q5aro9Pgh_S-iuNv3PJv-734" value="OS" style="rounded=0;whiteSpace=wrap;html=1;fillColor=#ffe6cc;strokeColor=#d79b00;" vertex="1" parent="1">
          <mxGeometry x="-1020" y="700" width="61" height="30" as="geometry" />
        </mxCell>
        <mxCell id="q5aro9Pgh_S-iuNv3PJv-735" value="JVM" style="rounded=0;whiteSpace=wrap;html=1;fillColor=#dae8fc;strokeColor=#6c8ebf;" vertex="1" parent="1">
          <mxGeometry x="-1024.5" y="630" width="64.5" height="30" as="geometry" />
        </mxCell>
        <mxCell id="q5aro9Pgh_S-iuNv3PJv-736" value="JAVA" style="rounded=0;whiteSpace=wrap;html=1;fillColor=#d5e8d4;strokeColor=#82b366;" vertex="1" parent="1">
          <mxGeometry x="-1024.5" y="560" width="64.5" height="30" as="geometry" />
        </mxCell>
        <mxCell id="q5aro9Pgh_S-iuNv3PJv-748" value="" style="endArrow=classic;startArrow=classic;html=1;entryX=0.5;entryY=1;entryDx=0;entryDy=0;exitX=0.5;exitY=0;exitDx=0;exitDy=0;" edge="1" parent="1" source="q5aro9Pgh_S-iuNv3PJv-732" target="q5aro9Pgh_S-iuNv3PJv-728">
          <mxGeometry width="50" height="50" relative="1" as="geometry">
            <mxPoint x="-1190" y="700" as="sourcePoint" />
            <mxPoint x="-1140" y="650" as="targetPoint" />
          </mxGeometry>
        </mxCell>
        <mxCell id="q5aro9Pgh_S-iuNv3PJv-749" value="" style="rounded=0;whiteSpace=wrap;html=1;fillColor=#d5e8d4;dashed=1;strokeWidth=2;strokeColor=#82b366;opacity=20;" vertex="1" parent="1">
          <mxGeometry x="-1500" y="539" width="545" height="65" as="geometry" />
        </mxCell>
        <mxCell id="q5aro9Pgh_S-iuNv3PJv-750" value="" style="rounded=0;whiteSpace=wrap;html=1;fillColor=#dae8fc;dashed=1;strokeWidth=2;strokeColor=#6c8ebf;opacity=20;" vertex="1" parent="1">
          <mxGeometry x="-1500" y="615" width="545" height="55" as="geometry" />
        </mxCell>
        <mxCell id="q5aro9Pgh_S-iuNv3PJv-751" value="" style="rounded=0;whiteSpace=wrap;html=1;fillColor=#ffe6cc;dashed=1;strokeWidth=2;strokeColor=#d79b00;opacity=20;" vertex="1" parent="1">
          <mxGeometry x="-1499" y="685" width="545" height="55" as="geometry" />
        </mxCell>
      </root>
    </mxGraphModel>
  </diagram>
</mxfile>
